<svg width="1880" height="20" viewBox="0 0 1880 20" fill="none" xmlns="http://www.w3.org/2000/svg">
<g opacity="0.3">
<path d="M165 0V20" stroke="white"/>
<path d="M175 10L155 10" stroke="white"/>
<path d="M475 0V20" stroke="white"/>
<path d="M485 10L465 10" stroke="white"/>
<path d="M785 0V20" stroke="white"/>
<path d="M795 10L775 10" stroke="white"/>
<path d="M1095 0V20" stroke="white"/>
<path d="M1105 10L1085 10" stroke="white"/>
<path d="M1405 0V20" stroke="white"/>
<path d="M1415 10L1395 10" stroke="white"/>
<path d="M1715 0V20" stroke="white"/>
<path d="M1725 10L1705 10" stroke="white"/>
<path d="M10 0V20" stroke="white"/>
<path d="M20 10L-7.15256e-07 10" stroke="white"/>
<path d="M320 0V20" stroke="white"/>
<path d="M330 10L310 10" stroke="white"/>
<path d="M630 0V20" stroke="white"/>
<path d="M640 10L620 10" stroke="white"/>
<path d="M940 0V20" stroke="white"/>
<path d="M950 10L930 10" stroke="white"/>
<path d="M1250 0V20" stroke="white"/>
<path d="M1260 10L1240 10" stroke="white"/>
<path d="M1560 0V20" stroke="white"/>
<path d="M1570 10L1550 10" stroke="white"/>
<path d="M1870 0V20" stroke="white"/>
<path d="M1880 10L1860 10" stroke="white"/>
</g>
</svg>
