<svg width="27" height="11" viewBox="0 0 27 11" fill="none" xmlns="http://www.w3.org/2000/svg">
<path d="M24.5817 3.57282C24.53 3.81417 24.3748 4.03828 24.1162 4.21067L23.7197 4.4865L21.0304 2.59019C20.3753 2.12473 19.341 2.12473 18.6859 2.59019L16.0138 4.50374L15.5656 4.19344C15.0139 3.79693 15.0139 2.98669 15.5656 2.59019L18.6859 0.349094C19.341 -0.116365 20.3753 -0.116365 21.0304 0.349094L24.099 2.53847C24.5127 2.83154 24.6679 3.2108 24.5817 3.57282Z" fill="white"/>
<path d="M10.9122 4.1762L10.464 4.4865L7.79194 2.59019C7.13685 2.12473 6.1025 2.12473 5.44741 2.59019L2.7581 4.50374L2.36159 4.22791C2.10301 4.03828 1.94785 3.81417 1.89614 3.57282C1.80994 3.2108 1.96509 2.83154 2.36159 2.55571L5.44741 0.349094C6.1025 -0.116365 7.13685 -0.116365 7.79194 0.349094L10.9122 2.57295C11.4639 2.96945 11.4639 3.79693 10.9122 4.1762Z" fill="white"/>
<path d="M26.4794 3.38281V5.62391C26.4794 6.05489 26.2553 6.48587 25.7898 6.81341L21.4111 9.93371C20.4974 10.5888 18.9976 10.5888 18.0839 9.93371L13.9293 6.96857C13.5155 6.6755 12.9639 6.6755 12.5501 6.96857L8.39549 9.93371C7.48181 10.5888 5.982 10.5888 5.06833 9.93371L0.689568 6.81341C0.22411 6.48587 0 6.05489 0 5.62391V3.38281C0 3.77931 0.20687 4.19305 0.603372 4.50336C0.63785 4.53784 0.65509 4.55508 0.689568 4.57232L1.89631 5.43428L5.06833 7.69261C5.982 8.3477 7.48181 8.3477 8.39549 7.69261L11.6709 5.36532L12.2743 4.93434C12.8432 4.5206 13.619 4.5206 14.1879 4.93434L14.8085 5.36532L18.0667 7.69261C18.9804 8.3477 20.4802 8.3477 21.3938 7.69261L24.5659 5.43428L25.7726 4.57232C25.8071 4.55508 25.8243 4.53784 25.8588 4.50336C26.2725 4.19305 26.4794 3.77931 26.4794 3.38281Z" fill="white"/>
</svg>
