<svg width="192" height="15" viewBox="0 0 192 15" fill="none" xmlns="http://www.w3.org/2000/svg">
<path d="M55.3674 11.6884C55.1484 11.6884 54.9537 11.6398 54.759 11.5181C54.4183 11.299 54.1992 10.934 54.1992 10.5202V2.02637C55.4891 2.02637 56.5356 3.07289 56.5356 4.36279V8.54887L61.2815 6.04209C61.6222 5.87172 62.036 5.87172 62.3767 6.04209L67.1225 8.54887V4.36279C67.1225 3.07289 68.1691 2.02637 69.459 2.02637V10.5202C69.459 10.934 69.2399 11.3234 68.8992 11.5181C68.5585 11.7371 68.1204 11.7371 67.7553 11.5424L61.8413 8.42718L55.9272 11.5424C55.7568 11.6398 55.5621 11.6884 55.3674 11.6884Z" fill="white"/>
<path d="M144.104 11.5187C143.91 11.5187 143.715 11.4701 143.545 11.3727L132.374 5.23961V9.30401C132.374 10.5939 131.327 11.6404 130.037 11.6404V3.24392C130.037 2.83018 130.256 2.44078 130.621 2.24608C130.986 2.02704 131.424 2.02704 131.789 2.22174L142.96 8.35484V4.26611C142.96 2.97621 144.007 1.92969 145.297 1.92969V10.3505C145.297 10.7643 145.078 11.1537 144.713 11.3484C144.518 11.4701 144.323 11.5187 144.104 11.5187Z" fill="white"/>
<path d="M97.3016 11.5187C97.1069 11.5187 96.9122 11.4701 96.7418 11.3727L85.5708 5.23961V9.30401C85.5708 10.5939 84.5243 11.6404 83.2344 11.6404V3.24392C83.2344 2.83018 83.4534 2.44078 83.8185 2.24608C84.1835 2.02704 84.6216 2.02704 84.9867 2.22174L96.1334 8.35484V4.26611C96.1334 2.97621 97.1799 1.92969 98.4698 1.92969V10.3505C98.4698 10.7643 98.2507 11.1537 97.8857 11.3484C97.7153 11.4701 97.4963 11.5187 97.3016 11.5187Z" fill="white"/>
<path d="M75.3994 11.6404V4.26611C75.3994 2.97621 76.4459 1.92969 77.7358 1.92969V9.30401C77.7602 10.5939 76.6893 11.6404 75.3994 11.6404Z" fill="white"/>
<path d="M122.053 11.6404V4.26611C122.053 2.97621 123.099 1.92969 124.389 1.92969V9.30401C124.413 10.5939 123.367 11.6404 122.053 11.6404Z" fill="white"/>
<path d="M151.039 11.6404V4.26611C151.039 2.97621 152.086 1.92969 153.375 1.92969V9.30401C153.4 10.5939 152.353 11.6404 151.039 11.6404Z" fill="white"/>
<path d="M109.276 8.35693H105.284V6.02051H111.636C111.636 7.28607 110.59 8.35693 109.276 8.35693Z" fill="white"/>
<path d="M104.116 11.6406V2.85473C104.116 2.19761 104.652 1.68652 105.284 1.68652H117.356C117.356 2.97642 116.309 4.02294 115.02 4.02294H106.477V9.30422C106.453 10.5941 105.406 11.6406 104.116 11.6406Z" fill="white"/>
<path d="M164.598 11.6168V3.09863H166.934V9.28041C166.958 10.5703 165.912 11.6168 164.598 11.6168Z" fill="white"/>
<path d="M170.849 4.26611H160.701C159.411 4.26611 158.364 3.21959 158.364 1.92969H173.21C173.21 3.21959 172.139 4.26611 170.849 4.26611Z" fill="white"/>
<path d="M34.7053 5.04399C34.6323 5.38472 34.4132 5.70111 34.0482 5.94448L33.4884 6.33389L29.6917 3.65674C28.7669 2.99962 27.3066 2.99962 26.3818 3.65674L22.6095 6.35822L21.9767 5.92014C21.1979 5.36038 21.1979 4.21651 21.9767 3.65674L26.3818 0.492838C27.3066 -0.164279 28.7669 -0.164279 29.6917 0.492838L34.0238 3.58373C34.6079 3.99747 34.827 4.5329 34.7053 5.04399Z" fill="white"/>
<path d="M15.4057 5.89581L14.773 6.33389L11.0006 3.65674C10.0758 2.99962 8.61552 2.99962 7.69069 3.65674L3.89401 6.35822L3.33424 5.96882C2.96918 5.70111 2.75014 5.38472 2.67713 5.04399C2.55544 4.5329 2.77448 3.99747 3.33424 3.60806L7.69069 0.492838C8.61552 -0.164279 10.0758 -0.164279 11.0006 0.492838L15.4057 3.6324C16.1845 4.19217 16.1845 5.36038 15.4057 5.89581Z" fill="white"/>
<path d="M37.3827 4.77637V7.94027C37.3827 8.54871 37.0663 9.15715 36.4092 9.61957L30.2274 14.0247C28.9375 14.9495 26.8201 14.9495 25.5302 14.0247L19.6649 9.83861C19.0808 9.42487 18.3019 9.42487 17.7178 9.83861L11.8525 14.0247C10.5626 14.9495 8.44518 14.9495 7.15528 14.0247L0.973508 9.61957C0.31639 9.15715 0 8.54871 0 7.94027V4.77637C0 5.33613 0.292052 5.92024 0.851819 6.35832C0.900495 6.40699 0.924832 6.43133 0.973508 6.45567L2.67715 7.67255L7.15528 10.8608C8.44518 11.7856 10.5626 11.7856 11.8525 10.8608L16.4766 7.5752L17.3284 6.96676C18.1316 6.38266 19.2268 6.38266 20.0299 6.96676L20.9061 7.5752L25.5059 10.8608C26.7958 11.7856 28.9132 11.7856 30.2031 10.8608L34.6812 7.67255L36.3849 6.45567C36.4335 6.43133 36.4579 6.40699 36.5065 6.35832C37.0906 5.92024 37.3827 5.33613 37.3827 4.77637Z" fill="white"/>
<path d="M187.084 3.19525L184.674 5.48299L182.265 3.19525C181.413 2.36777 180.269 1.92969 179.077 1.92969H177.324L183.506 7.55169V11.6161C184.796 11.6161 185.842 10.5696 185.842 9.27967V7.57603L192 1.92969H190.272C189.079 1.92969 187.935 2.36777 187.084 3.19525Z" fill="white"/>
</svg>
