<svg width="1920" height="659" viewBox="0 0 1920 659" fill="none" xmlns="http://www.w3.org/2000/svg">
<path d="M89.23 0.999996L73.39 48.43L56.65 0.999996H32.8L16.06 48.43L0.220001 0.999996H-21.11L1.66 64H30.28L44.77 21.34L59.17 64H87.79L110.47 0.999996H89.23ZM182.135 16.39V0.999996H115.535V64H182.135V48.61H135.335V39.25H182.135V25.75H135.335V16.39H182.135ZM407.102 0.999996H360.752V64H407.102C422.762 64 437.072 53.92 437.072 32.5C437.072 11.08 422.762 0.999996 407.102 0.999996ZM400.352 47.26H380.552V17.74H400.352C408.992 17.74 417.272 19 417.272 32.5C417.272 46 408.992 47.26 400.352 47.26ZM509.748 16.39V0.999996H443.148V64H509.748V48.61H462.948V39.25H509.748V25.75H462.948V16.39H509.748ZM579.428 0.999996L557.918 50.14L536.408 0.999996H514.448L543.788 64H572.138L601.388 0.999996H579.428ZM672.606 16.39V0.999996H606.006V64H672.606V48.61H625.806V39.25H672.606V25.75H625.806V16.39H672.606ZM698.446 47.26V0.999996H678.646V64H743.446V47.26H698.446ZM786.997 64.9C814.627 64.9 826.597 53.74 826.597 32.41C826.597 11.17 814.627 0.0999966 786.997 0.0999966C759.277 0.0999966 747.397 11.08 747.397 32.41C747.397 53.83 759.277 64.9 786.997 64.9ZM786.997 48.16C771.697 48.16 767.197 42.22 767.197 32.41C767.197 22.69 771.607 16.84 786.997 16.84C802.477 16.84 806.797 22.78 806.797 32.41C806.797 42.13 802.387 48.16 786.997 48.16ZM882.126 0.999996H832.626V64H852.426V48.25H882.126C896.436 48.25 906.246 38.62 906.246 24.58C906.246 10.54 896.436 0.999996 882.126 0.999996ZM877.626 31.51H852.426V17.74H877.626C881.316 17.74 886.446 17.74 886.446 24.58C886.446 31.51 881.316 31.51 877.626 31.51ZM978.898 16.39V0.999996H912.298V64H978.898V48.61H932.098V39.25H978.898V25.75H932.098V16.39H978.898ZM1031.29 0.999996H984.937V64H1031.29C1046.95 64 1061.26 53.92 1061.26 32.5C1061.26 11.08 1046.95 0.999996 1031.29 0.999996ZM1024.54 47.26H1004.74V17.74H1024.54C1033.18 17.74 1041.46 19 1041.46 32.5C1041.46 46 1033.18 47.26 1024.54 47.26ZM1304.17 64H1325.95L1296.7 0.999996H1268.35L1239.01 64H1260.88L1266.28 51.67H1298.77L1304.17 64ZM1272.58 37.45L1282.57 14.86L1292.47 37.45H1272.58ZM1613.99 0.999996L1598.15 48.43L1581.41 0.999996H1557.56L1540.82 48.43L1524.98 0.999996H1503.65L1526.42 64H1555.04L1569.53 21.34L1583.93 64H1612.55L1635.23 0.999996H1613.99ZM1706.9 16.39V0.999996H1640.3V64H1706.9V48.61H1660.1V39.25H1706.9V25.75H1660.1V16.39H1706.9ZM1732.74 47.26V0.999996H1712.94V64H1777.74V47.26H1732.74ZM1803.88 47.26V0.999996H1784.08V64H1848.88V47.26H1803.88ZM1857.29 25.66V41.14H1929.29V25.66H1857.29ZM29.29 100H-20.21V163H-0.409998V147.25H29.29C43.6 147.25 53.41 137.62 53.41 123.58C53.41 109.54 43.6 100 29.29 100ZM24.79 130.51H-0.409998V116.74H24.79C28.48 116.74 33.61 116.74 33.61 123.58C33.61 130.51 28.48 130.51 24.79 130.51ZM79.2611 146.26V100H59.4611V163H124.261V146.26H79.2611ZM194.339 163H216.119L186.869 100H158.519L129.179 163H151.049L156.449 150.67H188.939L194.339 163ZM162.749 136.45L172.739 113.86L182.639 136.45H162.749ZM282.117 100V142.66L247.107 100H220.737V163H240.537V120.16L275.637 163H301.917V100H282.117ZM370.489 100V142.66L335.479 100H309.109V163H328.909V120.16L364.009 163H390.289V100H370.489ZM464.081 115.39V100H397.481V163H464.081V147.61H417.281V138.25H464.081V124.75H417.281V115.39H464.081ZM516.471 100H470.121V163H516.471C532.131 163 546.441 152.92 546.441 131.5C546.441 110.08 532.131 100 516.471 100ZM509.721 146.26H489.921V116.74H509.721C518.361 116.74 526.641 118 526.641 131.5C526.641 145 518.361 146.26 509.721 146.26ZM711.632 131.41V100H691.832V131.41C691.832 139.06 689.402 147.16 672.032 147.16C654.662 147.16 652.232 139.15 652.232 131.41V100H632.432V131.41C632.432 153.37 644.312 163.9 672.032 163.9C699.662 163.9 711.632 153.28 711.632 131.41ZM717.707 141.04C717.707 159.49 732.647 163.9 758.477 163.9C783.047 163.9 798.167 160.03 798.167 142.93C798.167 126.64 782.777 125.11 757.937 123.94C742.007 123.22 738.947 122.77 738.947 119.08C738.947 115.57 742.007 114.49 755.417 114.49C769.547 114.49 775.667 115.75 775.667 120.88H795.467C795.467 105.04 781.427 99.1 757.217 99.1C733.007 99.1 719.147 104.23 719.147 118.09C719.147 132.58 730.037 137.08 757.937 138.16C775.577 138.88 778.367 139.42 778.367 143.47C778.367 147.07 774.767 148.51 759.377 148.51C741.737 148.51 737.507 145.9 737.507 141.04H717.707ZM870.766 115.39V100H804.166V163H870.766V147.61H823.966V138.25H870.766V124.75H823.966V115.39H870.766ZM950.426 123.58C950.426 109.54 940.616 100 926.306 100H876.806V163H896.606V147.25H916.676L926.036 163H949.436L938.096 144.64C945.746 140.95 950.426 133.3 950.426 123.58ZM896.606 116.74H921.806C925.496 116.74 930.626 116.74 930.626 123.58C930.626 130.51 925.496 130.51 921.806 130.51H896.606V116.74ZM1056.19 100H1036.39V163H1056.19V100ZM1124.8 100V142.66L1089.79 100H1063.42V163H1083.22V120.16L1118.32 163H1144.6V100H1124.8ZM1227.76 100H1150.36V116.74H1179.16V163H1198.96V116.74H1227.76V100ZM1300.17 115.39V100H1233.57V163H1300.17V147.61H1253.37V138.25H1300.17V124.75H1253.37V115.39H1300.17ZM1379.83 123.58C1379.83 109.54 1370.02 100 1355.71 100H1306.21V163H1326.01V147.25H1346.08L1355.44 163H1378.84L1367.5 144.64C1375.15 140.95 1379.83 133.3 1379.83 123.58ZM1326.01 116.74H1351.21C1354.9 116.74 1360.03 116.74 1360.03 123.58C1360.03 130.51 1354.9 130.51 1351.21 130.51H1326.01V116.74ZM1452.22 116.74V100H1385.62V163H1405.42V144.82H1446.82V128.08H1405.42V116.74H1452.22ZM1511.35 163H1533.13L1503.88 100H1475.53L1446.19 163H1468.06L1473.46 150.67H1505.95L1511.35 163ZM1479.76 136.45L1489.75 113.86L1499.65 136.45H1479.76ZM1529.73 131.41C1529.73 152.83 1541.61 163.9 1569.33 163.9C1594.53 163.9 1607.4 154.63 1608.66 135.55H1588.5C1587.33 143.65 1581.03 147.16 1569.33 147.16C1554.3 147.16 1549.53 141.22 1549.53 131.41C1549.53 121.69 1554.21 115.84 1569.33 115.84C1581.03 115.84 1587.33 119.26 1588.5 127.27H1608.66C1607.4 108.28 1594.53 99.1 1569.33 99.1C1541.61 99.1 1529.73 110.08 1529.73 131.41ZM1681.3 115.39V100H1614.7V163H1681.3V147.61H1634.5V138.25H1681.3V124.75H1634.5V115.39H1681.3ZM1766.35 141.04C1766.35 159.49 1781.29 163.9 1807.12 163.9C1831.69 163.9 1846.81 160.03 1846.81 142.93C1846.81 126.64 1831.42 125.11 1806.58 123.94C1790.65 123.22 1787.59 122.77 1787.59 119.08C1787.59 115.57 1790.65 114.49 1804.06 114.49C1818.19 114.49 1824.31 115.75 1824.31 120.88H1844.11C1844.11 105.04 1830.07 99.1 1805.86 99.1C1781.65 99.1 1767.79 104.23 1767.79 118.09C1767.79 132.58 1778.68 137.08 1806.58 138.16C1824.22 138.88 1827.01 139.42 1827.01 143.47C1827.01 147.07 1823.41 148.51 1808.02 148.51C1790.38 148.51 1786.15 145.9 1786.15 141.04H1766.35ZM1890.63 163.9C1918.26 163.9 1930.23 152.74 1930.23 131.41C1930.23 110.17 1918.26 99.1 1890.63 99.1C1862.91 99.1 1851.03 110.08 1851.03 131.41C1851.03 152.83 1862.91 163.9 1890.63 163.9ZM1890.63 147.16C1875.33 147.16 1870.83 141.22 1870.83 131.41C1870.83 121.69 1875.24 115.84 1890.63 115.84C1906.11 115.84 1910.43 121.78 1910.43 131.41C1910.43 141.13 1906.02 147.16 1890.63 147.16ZM56.29 199H-21.11V215.74H7.69V262H27.49V215.74H56.29V199ZM125.998 199V222.13H81.8978V199H62.0978V262H81.8978V238.87H125.998V262H145.798V199H125.998ZM215.609 262H237.389L208.139 199H179.789L150.449 262H172.319L177.719 249.67H210.209L215.609 262ZM184.019 235.45L194.009 212.86L203.909 235.45H184.019ZM302.774 199H225.374V215.74H254.174V262H273.974V215.74H302.774V199ZM486.247 199H436.747V262H456.547V246.25H486.247C500.557 246.25 510.367 236.62 510.367 222.58C510.367 208.54 500.557 199 486.247 199ZM481.747 229.51H456.547V215.74H481.747C485.437 215.74 490.567 215.74 490.567 222.58C490.567 229.51 485.437 229.51 481.747 229.51ZM536.218 245.26V199H516.418V262H581.218V245.26H536.218ZM651.297 262H673.077L643.827 199H615.477L586.137 262H608.007L613.407 249.67H645.897L651.297 262ZM619.707 235.45L629.697 212.86L639.597 235.45H619.707ZM688.574 241.3V262H708.374V241.3L742.214 199H718.994L698.474 225.1L678.044 199H654.734L688.574 241.3ZM813.418 214.39V199H746.818V262H813.418V246.61H766.618V237.25H813.418V223.75H766.618V214.39H813.418ZM893.078 222.58C893.078 208.54 883.268 199 868.958 199H819.458V262H839.258V246.25H859.328L868.688 262H892.088L880.748 243.64C888.398 239.95 893.078 232.3 893.078 222.58ZM839.258 215.74H864.458C868.148 215.74 873.278 215.74 873.278 222.58C873.278 229.51 868.148 229.51 864.458 229.51H839.258V215.74ZM897.087 240.04C897.087 258.49 912.027 262.9 937.857 262.9C962.427 262.9 977.547 259.03 977.547 241.93C977.547 225.64 962.157 224.11 937.317 222.94C921.387 222.22 918.327 221.77 918.327 218.08C918.327 214.57 921.387 213.49 934.797 213.49C948.927 213.49 955.047 214.75 955.047 219.88H974.847C974.847 204.04 960.807 198.1 936.597 198.1C912.387 198.1 898.527 203.23 898.527 217.09C898.527 231.58 909.417 236.08 937.317 237.16C954.957 237.88 957.747 238.42 957.747 242.47C957.747 246.07 954.147 247.51 938.757 247.51C921.117 247.51 916.887 244.9 916.887 240.04H897.087ZM1110.55 230.41C1110.55 251.83 1122.43 262.9 1150.15 262.9C1175.35 262.9 1188.22 253.63 1189.48 234.55H1169.32C1168.15 242.65 1161.85 246.16 1150.15 246.16C1135.12 246.16 1130.35 240.22 1130.35 230.41C1130.35 220.69 1135.03 214.84 1150.15 214.84C1161.85 214.84 1168.15 218.26 1169.32 226.27H1189.48C1188.22 207.28 1175.35 198.1 1150.15 198.1C1122.43 198.1 1110.55 209.08 1110.55 230.41ZM1234.21 262.9C1261.84 262.9 1273.81 251.74 1273.81 230.41C1273.81 209.17 1261.84 198.1 1234.21 198.1C1206.49 198.1 1194.61 209.08 1194.61 230.41C1194.61 251.83 1206.49 262.9 1234.21 262.9ZM1234.21 246.16C1218.91 246.16 1214.41 240.22 1214.41 230.41C1214.41 220.69 1218.82 214.84 1234.21 214.84C1249.69 214.84 1254.01 220.78 1254.01 230.41C1254.01 240.13 1249.6 246.16 1234.21 246.16ZM1359.31 230.41V199H1339.51V230.41C1339.51 238.06 1337.08 246.16 1319.71 246.16C1302.34 246.16 1299.91 238.15 1299.91 230.41V199H1280.11V230.41C1280.11 252.37 1291.99 262.9 1319.71 262.9C1347.34 262.9 1359.31 252.28 1359.31 230.41ZM1386.08 245.26V199H1366.28V262H1431.08V245.26H1386.08ZM1483.78 199H1437.43V262H1483.78C1499.44 262 1513.75 251.92 1513.75 230.5C1513.75 209.08 1499.44 199 1483.78 199ZM1477.03 245.26H1457.23V215.74H1477.03C1485.67 215.74 1493.95 217 1493.95 230.5C1493.95 244 1485.67 245.26 1477.03 245.26ZM1714.32 215.74V199H1647.72V262H1667.52V243.82H1708.92V227.08H1667.52V215.74H1714.32ZM1786.7 214.39V199H1720.1V262H1786.7V246.61H1739.9V237.25H1786.7V223.75H1739.9V214.39H1786.7ZM1859.34 214.39V199H1792.74V262H1859.34V246.61H1812.54V237.25H1859.34V223.75H1812.54V214.39H1859.34ZM1885.18 245.26V199H1865.38V262H1930.18V245.26H1885.18ZM56.29 298H-21.11V314.74H7.69V361H27.49V314.74H56.29V298ZM125.998 298V321.13H81.8978V298H62.0978V361H81.8978V337.87H125.998V361H145.798V298H125.998ZM219.619 313.39V298H153.019V361H219.619V345.61H172.819V336.25H219.619V322.75H172.819V313.39H219.619ZM708.215 298H661.865V361H708.215C723.875 361 738.185 350.92 738.185 329.5C738.185 308.08 723.875 298 708.215 298ZM701.465 344.26H681.665V314.74H701.465C710.105 314.74 718.385 316 718.385 329.5C718.385 343 710.105 344.26 701.465 344.26ZM764.061 298H744.261V361H764.061V298ZM837.885 314.74V298H771.285V361H791.085V342.82H832.485V326.08H791.085V314.74H837.885ZM910.261 314.74V298H843.661V361H863.461V342.82H904.861V326.08H863.461V314.74H910.261ZM982.638 313.39V298H916.037V361H982.638V345.61H935.837V336.25H982.638V322.75H935.837V313.39H982.638ZM1062.3 321.58C1062.3 307.54 1052.49 298 1038.18 298H988.677V361H1008.48V345.25H1028.55L1037.91 361H1061.31L1049.97 342.64C1057.62 338.95 1062.3 331.3 1062.3 321.58ZM1008.48 314.74H1033.68C1037.37 314.74 1042.5 314.74 1042.5 321.58C1042.5 328.51 1037.37 328.51 1033.68 328.51H1008.48V314.74ZM1134.68 313.39V298H1068.08V361H1134.68V345.61H1087.88V336.25H1134.68V322.75H1087.88V313.39H1134.68ZM1202.1 298V340.66L1167.09 298H1140.72V361H1160.52V318.16L1195.62 361H1221.9V298H1202.1ZM1227.32 329.41C1227.32 350.83 1239.2 361.9 1266.92 361.9C1292.12 361.9 1304.99 352.63 1306.25 333.55H1286.09C1284.92 341.65 1278.62 345.16 1266.92 345.16C1251.89 345.16 1247.12 339.22 1247.12 329.41C1247.12 319.69 1251.8 313.84 1266.92 313.84C1278.62 313.84 1284.92 317.26 1286.09 325.27H1306.25C1304.99 306.28 1292.12 297.1 1266.92 297.1C1239.2 297.1 1227.32 308.08 1227.32 329.41ZM1378.88 313.39V298H1312.28V361H1378.88V345.61H1332.08V336.25H1378.88V322.75H1332.08V313.39H1378.88ZM1840.93 298H1821.13V361H1840.93V298ZM1909.53 298V340.66L1874.52 298H1848.15V361H1867.95V318.16L1903.05 361H1929.33V298H1909.53ZM-21.11 438.04C-21.11 456.49 -6.17 460.9 19.66 460.9C44.23 460.9 59.35 457.03 59.35 439.93C59.35 423.64 43.96 422.11 19.12 420.94C3.19 420.22 0.13 419.77 0.13 416.08C0.13 412.57 3.19 411.49 16.6 411.49C30.73 411.49 36.85 412.75 36.85 417.88H56.65C56.65 402.04 42.61 396.1 18.4 396.1C-5.81 396.1 -19.67 401.23 -19.67 415.09C-19.67 429.58 -8.78 434.08 19.12 435.16C36.76 435.88 39.55 436.42 39.55 440.47C39.55 444.07 35.95 445.51 20.56 445.51C2.92 445.51 -1.31 442.9 -1.31 438.04H-21.11ZM131.95 412.39V397H65.3498V460H131.95V444.61H85.1498V435.25H131.95V421.75H85.1498V412.39H131.95ZM199.37 397V439.66L164.36 397H137.99V460H157.79V417.16L192.89 460H219.17V397H199.37ZM224.935 438.04C224.935 456.49 239.875 460.9 265.705 460.9C290.275 460.9 305.395 457.03 305.395 439.93C305.395 423.64 290.005 422.11 265.165 420.94C249.235 420.22 246.175 419.77 246.175 416.08C246.175 412.57 249.235 411.49 262.645 411.49C276.775 411.49 282.895 412.75 282.895 417.88H302.695C302.695 402.04 288.655 396.1 264.445 396.1C240.235 396.1 226.375 401.23 226.375 415.09C226.375 429.58 237.265 434.08 265.165 435.16C282.805 435.88 285.595 436.42 285.595 440.47C285.595 444.07 281.995 445.51 266.605 445.51C248.965 445.51 244.735 442.9 244.735 438.04H224.935ZM369.941 460H391.721L362.471 397H334.121L304.781 460H326.651L332.051 447.67H364.541L369.941 460ZM338.351 433.45L348.341 410.86L358.241 433.45H338.351ZM457.106 397H379.706V413.74H408.506V460H428.306V413.74H457.106V397ZM482.714 397H462.914V460H482.714V397ZM527.76 460.9C555.39 460.9 567.36 449.74 567.36 428.41C567.36 407.17 555.39 396.1 527.76 396.1C500.04 396.1 488.16 407.08 488.16 428.41C488.16 449.83 500.04 460.9 527.76 460.9ZM527.76 444.16C512.46 444.16 507.96 438.22 507.96 428.41C507.96 418.69 512.37 412.84 527.76 412.84C543.24 412.84 547.56 418.78 547.56 428.41C547.56 438.13 543.15 444.16 527.76 444.16ZM634.769 397V439.66L599.759 397H573.389V460H593.189V417.16L628.289 460H654.569V397H634.769ZM660.334 438.04C660.334 456.49 675.274 460.9 701.104 460.9C725.674 460.9 740.794 457.03 740.794 439.93C740.794 423.64 725.404 422.11 700.564 420.94C684.634 420.22 681.574 419.77 681.574 416.08C681.574 412.57 684.634 411.49 698.044 411.49C712.174 411.49 718.294 412.75 718.294 417.88H738.094C738.094 402.04 724.054 396.1 699.844 396.1C675.634 396.1 661.774 401.23 661.774 415.09C661.774 429.58 672.664 434.08 700.564 435.16C718.204 435.88 720.994 436.42 720.994 440.47C720.994 444.07 717.394 445.51 702.004 445.51C684.364 445.51 680.134 442.9 680.134 438.04H660.334ZM904.537 460H926.317L897.067 397H868.717L839.377 460H861.247L866.647 447.67H899.137L904.537 460ZM872.947 433.45L882.937 410.86L892.837 433.45H872.947ZM992.315 397V439.66L957.305 397H930.935V460H950.735V417.16L985.835 460H1012.11V397H992.315ZM1065.66 397H1019.31V460H1065.66C1081.32 460 1095.63 449.92 1095.63 428.5C1095.63 407.08 1081.32 397 1065.66 397ZM1058.91 443.26H1039.11V413.74H1058.91C1067.55 413.74 1075.83 415 1075.83 428.5C1075.83 442 1067.55 443.26 1058.91 443.26ZM1259.45 460H1281.23L1251.98 397H1223.63L1194.29 460H1216.16L1221.56 447.67H1254.05L1259.45 460ZM1227.86 433.45L1237.85 410.86L1247.75 433.45H1227.86ZM1335.34 397H1285.84V460H1305.64V444.25H1335.34C1349.65 444.25 1359.46 434.62 1359.46 420.58C1359.46 406.54 1349.65 397 1335.34 397ZM1330.84 427.51H1305.64V413.74H1330.84C1334.53 413.74 1339.66 413.74 1339.66 420.58C1339.66 427.51 1334.53 427.51 1330.84 427.51ZM1415.01 397H1365.51V460H1385.31V444.25H1415.01C1429.32 444.25 1439.13 434.62 1439.13 420.58C1439.13 406.54 1429.32 397 1415.01 397ZM1410.51 427.51H1385.31V413.74H1410.51C1414.2 413.74 1419.33 413.74 1419.33 420.58C1419.33 427.51 1414.2 427.51 1410.51 427.51ZM1518.81 420.58C1518.81 406.54 1509 397 1494.69 397H1445.19V460H1464.99V444.25H1485.06L1494.42 460H1517.82L1506.48 441.64C1514.13 437.95 1518.81 430.3 1518.81 420.58ZM1464.99 413.74H1490.19C1493.88 413.74 1499.01 413.74 1499.01 420.58C1499.01 427.51 1493.88 427.51 1490.19 427.51H1464.99V413.74ZM1591.19 412.39V397H1524.59V460H1591.19V444.61H1544.39V435.25H1591.19V421.75H1544.39V412.39H1591.19ZM1596.07 428.41C1596.07 449.83 1607.95 460.9 1635.67 460.9C1660.87 460.9 1673.74 451.63 1675 432.55H1654.84C1653.67 440.65 1647.37 444.16 1635.67 444.16C1620.64 444.16 1615.87 438.22 1615.87 428.41C1615.87 418.69 1620.55 412.84 1635.67 412.84C1647.37 412.84 1653.67 416.26 1654.84 424.27H1675C1673.74 405.28 1660.87 396.1 1635.67 396.1C1607.95 396.1 1596.07 407.08 1596.07 428.41ZM1700.84 397H1681.04V460H1700.84V397ZM1770.65 460H1792.43L1763.18 397H1734.83L1705.49 460H1727.36L1732.76 447.67H1765.25L1770.65 460ZM1739.06 433.45L1749.05 410.86L1758.95 433.45H1739.06ZM1857.82 397H1780.42V413.74H1809.22V460H1829.02V413.74H1857.82V397ZM1930.22 412.39V397H1863.62V460H1930.22V444.61H1883.42V435.25H1930.22V421.75H1883.42V412.39H1930.22ZM56.29 496H-21.11V512.74H7.69V559H27.49V512.74H56.29V496ZM125.998 496V519.13H81.8978V496H62.0978V559H81.8978V535.87H125.998V559H145.798V496H125.998ZM219.619 511.39V496H153.019V559H219.619V543.61H172.819V534.25H219.619V520.75H172.819V511.39H219.619ZM357.464 554.23L346.574 543.34C348.644 538.84 349.634 533.53 349.634 527.41C349.634 506.17 337.664 495.1 310.034 495.1C282.314 495.1 270.434 506.08 270.434 527.41C270.434 548.83 282.314 559.9 310.034 559.9C318.854 559.9 326.054 558.73 331.724 556.57L343.424 568.27L357.464 554.23ZM310.034 543.16C294.734 543.16 290.234 537.22 290.234 527.41C290.234 517.69 294.644 511.84 310.034 511.84C325.514 511.84 329.834 517.78 329.834 527.41C329.834 537.13 325.424 543.16 310.034 543.16ZM436.094 527.41V496H416.294V527.41C416.294 535.06 413.864 543.16 396.494 543.16C379.124 543.16 376.694 535.15 376.694 527.41V496H356.894V527.41C356.894 549.37 368.774 559.9 396.494 559.9C424.124 559.9 436.094 549.28 436.094 527.41ZM499.243 559H521.023L491.773 496H463.423L434.083 559H455.953L461.353 546.67H493.843L499.243 559ZM467.653 532.45L477.643 509.86L487.543 532.45H467.653ZM545.441 542.26V496H525.641V559H590.441V542.26H545.441ZM616.586 496H596.786V559H616.586V496ZM699.784 496H622.384V512.74H651.184V559H670.984V512.74H699.784V496ZM738.092 538.3V559H757.892V538.3L791.732 496H768.512L747.992 522.1L727.562 496H704.252L738.092 538.3ZM882.119 559.9C909.749 559.9 921.719 548.74 921.719 527.41C921.719 506.17 909.749 495.1 882.119 495.1C854.399 495.1 842.519 506.08 842.519 527.41C842.519 548.83 854.399 559.9 882.119 559.9ZM882.119 543.16C866.819 543.16 862.319 537.22 862.319 527.41C862.319 517.69 866.729 511.84 882.119 511.84C897.599 511.84 901.919 517.78 901.919 527.41C901.919 537.13 897.509 543.16 882.119 543.16ZM994.348 512.74V496H927.748V559H947.548V540.82H988.948V524.08H947.548V512.74H994.348ZM1110.32 559H1132.1L1102.85 496H1074.5L1045.16 559H1067.03L1072.43 546.67H1104.92L1110.32 559ZM1078.73 532.45L1088.72 509.86L1098.62 532.45H1078.73ZM1260.3 496H1182.9V512.74H1211.7V559H1231.5V512.74H1260.3V496ZM1302.88 559.9C1330.51 559.9 1342.48 548.74 1342.48 527.41C1342.48 506.17 1330.51 495.1 1302.88 495.1C1275.16 495.1 1263.28 506.08 1263.28 527.41C1263.28 548.83 1275.16 559.9 1302.88 559.9ZM1302.88 543.16C1287.58 543.16 1283.08 537.22 1283.08 527.41C1283.08 517.69 1287.49 511.84 1302.88 511.84C1318.36 511.84 1322.68 517.78 1322.68 527.41C1322.68 537.13 1318.27 543.16 1302.88 543.16ZM1398.01 496H1348.51V559H1368.31V543.25H1398.01C1412.32 543.25 1422.13 533.62 1422.13 519.58C1422.13 505.54 1412.32 496 1398.01 496ZM1393.51 526.51H1368.31V512.74H1393.51C1397.2 512.74 1402.33 512.74 1402.33 519.58C1402.33 526.51 1397.2 526.51 1393.51 526.51ZM1430.5 520.66V536.14H1502.5V520.66H1430.5ZM1573.18 496V538.66L1538.17 496H1511.8V559H1531.6V516.16L1566.7 559H1592.98V496H1573.18ZM1638 559.9C1665.63 559.9 1677.6 548.74 1677.6 527.41C1677.6 506.17 1665.63 495.1 1638 495.1C1610.28 495.1 1598.4 506.08 1598.4 527.41C1598.4 548.83 1610.28 559.9 1638 559.9ZM1638 543.16C1622.7 543.16 1618.2 537.22 1618.2 527.41C1618.2 517.69 1622.61 511.84 1638 511.84C1653.48 511.84 1657.8 517.78 1657.8 527.41C1657.8 537.13 1653.39 543.16 1638 543.16ZM1757.67 496H1680.27V512.74H1709.07V559H1728.87V512.74H1757.67V496ZM1760.64 527.41C1760.64 548.83 1772.52 559.9 1800.24 559.9C1825.44 559.9 1838.31 550.63 1839.57 531.55H1819.41C1818.24 539.65 1811.94 543.16 1800.24 543.16C1785.21 543.16 1780.44 537.22 1780.44 527.41C1780.44 517.69 1785.12 511.84 1800.24 511.84C1811.94 511.84 1818.24 515.26 1819.41 523.27H1839.57C1838.31 504.28 1825.44 495.1 1800.24 495.1C1772.52 495.1 1760.64 506.08 1760.64 527.41ZM1909.51 496V519.13H1865.41V496H1845.61V559H1865.41V535.87H1909.51V559H1929.31V496H1909.51ZM44.05 658H65.83L36.58 595H8.23L-21.11 658H0.76L6.16 645.67H38.65L44.05 658ZM12.46 631.45L22.45 608.86L32.35 631.45H12.46ZM131.827 595V637.66L96.8174 595H70.4474V658H90.2474V615.16L125.347 658H151.627V595H131.827ZM205.17 595H158.82V658H205.17C220.83 658 235.14 647.92 235.14 626.5C235.14 605.08 220.83 595 205.17 595ZM198.42 641.26H178.62V611.74H198.42C207.06 611.74 215.34 613 215.34 626.5C215.34 640 207.06 641.26 198.42 641.26ZM361.327 626.41V595H341.527V626.41C341.527 634.06 339.097 642.16 321.727 642.16C304.357 642.16 301.927 634.15 301.927 626.41V595H282.127V626.41C282.127 648.37 294.007 658.9 321.727 658.9C349.357 658.9 361.327 648.28 361.327 626.41ZM367.402 636.04C367.402 654.49 382.342 658.9 408.172 658.9C432.742 658.9 447.862 655.03 447.862 637.93C447.862 621.64 432.472 620.11 407.632 618.94C391.702 618.22 388.642 617.77 388.642 614.08C388.642 610.57 391.702 609.49 405.112 609.49C419.242 609.49 425.362 610.75 425.362 615.88H445.162C445.162 600.04 431.122 594.1 406.912 594.1C382.702 594.1 368.842 599.23 368.842 613.09C368.842 627.58 379.732 632.08 407.632 633.16C425.272 633.88 428.062 634.42 428.062 638.47C428.062 642.07 424.462 643.51 409.072 643.51C391.432 643.51 387.202 640.9 387.202 636.04H367.402ZM520.461 610.39V595H453.861V658H520.461V642.61H473.661V633.25H520.461V619.75H473.661V610.39H520.461ZM600.121 618.58C600.121 604.54 590.311 595 576.001 595H526.501V658H546.301V642.25H566.371L575.731 658H599.131L587.791 639.64C595.441 635.95 600.121 628.3 600.121 618.58ZM546.301 611.74H571.501C575.191 611.74 580.321 611.74 580.321 618.58C580.321 625.51 575.191 625.51 571.501 625.51H546.301V611.74ZM608.5 619.66V635.14H680.5V619.66H608.5ZM756.399 611.74V595H689.799V658H709.599V639.82H750.999V623.08H709.599V611.74H756.399ZM835.795 618.58C835.795 604.54 825.985 595 811.675 595H762.175V658H781.975V642.25H802.045L811.405 658H834.805L823.465 639.64C831.115 635.95 835.795 628.3 835.795 618.58ZM781.975 611.74H807.175C810.865 611.74 815.995 611.74 815.995 618.58C815.995 625.51 810.865 625.51 807.175 625.51H781.975V611.74ZM861.382 595H841.582V658H861.382V595ZM935.207 610.39V595H868.607V658H935.207V642.61H888.407V633.25H935.207V619.75H888.407V610.39H935.207ZM1002.63 595V637.66L967.617 595H941.247V658H961.047V615.16L996.147 658H1022.43V595H1002.63ZM1075.97 595H1029.62V658H1075.97C1091.63 658 1105.94 647.92 1105.94 626.5C1105.94 605.08 1091.63 595 1075.97 595ZM1069.22 641.26H1049.42V611.74H1069.22C1077.86 611.74 1086.14 613 1086.14 626.5C1086.14 640 1077.86 641.26 1069.22 641.26ZM1131.81 641.26V595H1112.01V658H1176.81V641.26H1131.81ZM1190.52 637.3V658H1210.32V637.3L1244.16 595H1220.94L1200.42 621.1L1179.99 595H1156.68L1190.52 637.3ZM1340.59 595H1291.09V658H1310.89V642.25H1340.59C1354.9 642.25 1364.71 632.62 1364.71 618.58C1364.71 604.54 1354.9 595 1340.59 595ZM1336.09 625.51H1310.89V611.74H1336.09C1339.78 611.74 1344.91 611.74 1344.91 618.58C1344.91 625.51 1339.78 625.51 1336.09 625.51ZM1444.38 618.58C1444.38 604.54 1434.57 595 1420.26 595H1370.76V658H1390.56V642.25H1410.63L1419.99 658H1443.39L1432.05 639.64C1439.7 635.95 1444.38 628.3 1444.38 618.58ZM1390.56 611.74H1415.76C1419.45 611.74 1424.58 611.74 1424.58 618.58C1424.58 625.51 1419.45 625.51 1415.76 625.51H1390.56V611.74ZM1488.87 658.9C1516.5 658.9 1528.47 647.74 1528.47 626.41C1528.47 605.17 1516.5 594.1 1488.87 594.1C1461.15 594.1 1449.27 605.08 1449.27 626.41C1449.27 647.83 1461.15 658.9 1488.87 658.9ZM1488.87 642.16C1473.57 642.16 1469.07 636.22 1469.07 626.41C1469.07 616.69 1473.48 610.84 1488.87 610.84C1504.35 610.84 1508.67 616.78 1508.67 626.41C1508.67 636.13 1504.26 642.16 1488.87 642.16ZM1580.84 595H1534.49V658H1580.84C1596.5 658 1610.81 647.92 1610.81 626.5C1610.81 605.08 1596.5 595 1580.84 595ZM1574.09 641.26H1554.29V611.74H1574.09C1582.73 611.74 1591.01 613 1591.01 626.5C1591.01 640 1582.73 641.26 1574.09 641.26ZM1696.35 626.41V595H1676.55V626.41C1676.55 634.06 1674.12 642.16 1656.75 642.16C1639.38 642.16 1636.95 634.15 1636.95 626.41V595H1617.15V626.41C1617.15 648.37 1629.03 658.9 1656.75 658.9C1684.38 658.9 1696.35 648.28 1696.35 626.41ZM1702.17 626.41C1702.17 647.83 1714.05 658.9 1741.77 658.9C1766.97 658.9 1779.84 649.63 1781.1 630.55H1760.94C1759.77 638.65 1753.47 642.16 1741.77 642.16C1726.74 642.16 1721.97 636.22 1721.97 626.41C1721.97 616.69 1726.65 610.84 1741.77 610.84C1753.47 610.84 1759.77 614.26 1760.94 622.27H1781.1C1779.84 603.28 1766.97 594.1 1741.77 594.1C1714.05 594.1 1702.17 605.08 1702.17 626.41ZM1861.17 595H1783.77V611.74H1812.57V658H1832.37V611.74H1861.17V595ZM1857.92 643.87V658H1876.46V643.87H1857.92Z" fill="url(#paint0_linear_1092_110131)"/>
<defs>
<linearGradient id="paint0_linear_1092_110131" x1="39.6745" y1="187.965" x2="1673.1" y2="187.965" gradientUnits="userSpaceOnUse">
<stop stop-color="#DCE0E2"/>
<stop offset="1" stop-color="#E2EAEE"/>
</linearGradient>
</defs>
</svg>
