<svg width="1214" height="461" viewBox="0 0 1214 461" fill="none" xmlns="http://www.w3.org/2000/svg">
<path d="M111.23 0.999996L95.39 48.43L78.65 0.999996H54.8L38.06 48.43L22.22 0.999996H0.89L23.66 64H52.28L66.77 21.34L81.17 64H109.79L132.47 0.999996H111.23ZM204.135 16.39V0.999996H137.535V64H204.135V48.61H157.335V39.25H204.135V25.75H157.335V16.39H204.135ZM433.509 24.58C433.509 10.54 423.699 0.999996 409.389 0.999996H359.889V64H379.689V48.25H399.759L409.119 64H432.519L421.179 45.64C428.829 41.95 433.509 34.3 433.509 24.58ZM379.689 17.74H404.889C408.579 17.74 413.709 17.74 413.709 24.58C413.709 31.51 408.579 31.51 404.889 31.51H379.689V17.74ZM505.897 16.39V0.999996H439.297V64H505.897V48.61H459.097V39.25H505.897V25.75H459.097V16.39H505.897ZM531.736 0.999996H511.936V64H531.736V0.999996ZM600.341 0.999996V43.66L565.331 0.999996H538.961V64H558.761V21.16L593.861 64H620.141V0.999996H600.341ZM690.447 0.999996L668.937 50.14L647.427 0.999996H625.467L654.807 64H683.157L712.407 0.999996H690.447ZM736.824 0.999996H717.024V64H736.824V0.999996ZM780.79 41.5H801.04C800.41 46 794.47 50.14 782.14 50.14C764.77 50.14 762.07 40.69 762.07 33.04C762.07 25.48 764.68 16.84 782.14 16.84C795.64 16.84 800.14 21.88 801.04 25.84H821.2C820.21 9.46 807.34 0.0999966 782.14 0.0999966C756.22 0.0999966 742.27 11.08 742.27 32.41C742.27 53.92 756.22 64.9 779.44 64.9C792.76 64.9 801.67 60.85 807.34 54.55L808.51 64H821.2V29.98H780.79V41.5ZM865.935 64.9C893.565 64.9 905.535 53.74 905.535 32.41C905.535 11.17 893.565 0.0999966 865.935 0.0999966C838.215 0.0999966 826.335 11.08 826.335 32.41C826.335 53.83 838.215 64.9 865.935 64.9ZM865.935 48.16C850.635 48.16 846.135 42.22 846.135 32.41C846.135 22.69 850.545 16.84 865.935 16.84C881.415 16.84 885.735 22.78 885.735 32.41C885.735 42.13 881.325 48.16 865.935 48.16ZM985.185 24.58C985.185 10.54 975.375 0.999996 961.065 0.999996H911.565V64H931.365V48.25H951.435L960.795 64H984.195L972.855 45.64C980.505 41.95 985.185 34.3 985.185 24.58ZM931.365 17.74H956.565C960.255 17.74 965.385 17.74 965.385 24.58C965.385 31.51 960.255 31.51 956.565 31.51H931.365V17.74ZM1053.65 64H1075.43L1046.18 0.999996H1017.83L988.49 64H1010.36L1015.76 51.67H1048.25L1053.65 64ZM1022.06 37.45L1032.05 14.86L1041.95 37.45H1022.06ZM1140.82 0.999996H1063.42V17.74H1092.22V64H1112.02V17.74H1140.82V0.999996ZM1213.22 16.39V0.999996H1146.62V64H1213.22V48.61H1166.42V39.25H1213.22V25.75H1166.42V16.39H1213.22ZM78.29 100H0.89V116.74H29.69V163H49.49V116.74H78.29V100ZM147.998 100V123.13H103.898V100H84.0978V163H103.898V139.87H147.998V163H167.798V100H147.998ZM241.619 115.39V100H175.019V163H241.619V147.61H194.819V138.25H241.619V124.75H194.819V115.39H241.619ZM373.185 100H295.785V116.74H324.585V163H344.385V116.74H373.185V100ZM442.892 100V123.13H398.792V100H378.992V163H398.792V139.87H442.892V163H462.692V100H442.892ZM543.533 123.58C543.533 109.54 533.723 100 519.413 100H469.913V163H489.713V147.25H509.783L519.143 163H542.543L531.203 144.64C538.853 140.95 543.533 133.3 543.533 123.58ZM489.713 116.74H514.913C518.603 116.74 523.733 116.74 523.733 123.58C523.733 130.51 518.603 130.51 514.913 130.51H489.713V116.74ZM569.121 100H549.321V163H569.121V100ZM596.145 146.26V100H576.345V163H641.145V146.26H596.145ZM667.291 146.26V100H647.491V163H712.291V146.26H667.291ZM806.099 163.9C833.729 163.9 845.699 152.74 845.699 131.41C845.699 110.17 833.729 99.1 806.099 99.1C778.379 99.1 766.499 110.08 766.499 131.41C766.499 152.83 778.379 163.9 806.099 163.9ZM806.099 147.16C790.799 147.16 786.299 141.22 786.299 131.41C786.299 121.69 790.709 115.84 806.099 115.84C821.579 115.84 825.899 121.78 825.899 131.41C825.899 141.13 821.489 147.16 806.099 147.16ZM918.328 116.74V100H851.728V163H871.528V144.82H912.928V128.08H871.528V116.74H918.328ZM1049.89 100H972.494V116.74H1001.29V163H1021.09V116.74H1049.89V100ZM1119.6 100V123.13H1075.5V100H1055.7V163H1075.5V139.87H1119.6V163H1139.4V100H1119.6ZM1213.22 115.39V100H1146.62V163H1213.22V147.61H1166.42V138.25H1213.22V124.75H1166.42V115.39H1213.22ZM39.41 239.5H59.66C59.03 244 53.09 248.14 40.76 248.14C23.39 248.14 20.69 238.69 20.69 231.04C20.69 223.48 23.3 214.84 40.76 214.84C54.26 214.84 58.76 219.88 59.66 223.84H79.82C78.83 207.46 65.96 198.1 40.76 198.1C14.84 198.1 0.89 209.08 0.89 230.41C0.89 251.92 14.84 262.9 38.06 262.9C51.38 262.9 60.29 258.85 65.96 252.55L67.13 262H79.82V227.98H39.41V239.5ZM150.379 262H172.159L142.909 199H114.559L85.2193 262H107.089L112.489 249.67H144.979L150.379 262ZM118.789 235.45L128.779 212.86L138.679 235.45H118.789ZM273.257 199H247.967L225.107 239.23L202.157 199H176.777V262H196.577V225.19L218.267 262H231.767L253.457 225.28V262H273.257V199ZM347.042 214.39V199H280.442V262H347.042V246.61H300.242V237.25H347.042V223.75H300.242V214.39H347.042ZM526.52 199H449.12V215.74H477.92V262H497.72V215.74H526.52V199ZM569.095 262.9C596.725 262.9 608.695 251.74 608.695 230.41C608.695 209.17 596.725 198.1 569.095 198.1C541.375 198.1 529.495 209.08 529.495 230.41C529.495 251.83 541.375 262.9 569.095 262.9ZM569.095 246.16C553.795 246.16 549.295 240.22 549.295 230.41C549.295 220.69 553.705 214.84 569.095 214.84C584.575 214.84 588.895 220.78 588.895 230.41C588.895 240.13 584.485 246.16 569.095 246.16ZM761.163 199H711.663V262H731.463V246.25H761.163C775.473 246.25 785.283 236.62 785.283 222.58C785.283 208.54 775.473 199 761.163 199ZM756.663 229.51H731.463V215.74H756.663C760.353 215.74 765.483 215.74 765.483 222.58C765.483 229.51 760.353 229.51 756.663 229.51ZM864.954 222.58C864.954 208.54 855.144 199 840.834 199H791.334V262H811.134V246.25H831.204L840.564 262H863.964L852.624 243.64C860.274 239.95 864.954 232.3 864.954 222.58ZM811.134 215.74H836.334C840.024 215.74 845.154 215.74 845.154 222.58C845.154 229.51 840.024 229.51 836.334 229.51H811.134V215.74ZM909.441 262.9C937.071 262.9 949.041 251.74 949.041 230.41C949.041 209.17 937.071 198.1 909.441 198.1C881.721 198.1 869.841 209.08 869.841 230.41C869.841 251.83 881.721 262.9 909.441 262.9ZM909.441 246.16C894.141 246.16 889.641 240.22 889.641 230.41C889.641 220.69 894.051 214.84 909.441 214.84C924.921 214.84 929.241 220.78 929.241 230.41C929.241 240.13 924.831 246.16 909.441 246.16ZM1010.63 199L989.115 248.14L967.605 199H945.645L974.985 262H1003.34L1032.59 199H1010.63ZM1057 199H1037.2V262H1057V199ZM1110.58 199H1064.23V262H1110.58C1126.24 262 1140.55 251.92 1140.55 230.5C1140.55 209.08 1126.24 199 1110.58 199ZM1103.83 245.26H1084.03V215.74H1103.83C1112.47 215.74 1120.75 217 1120.75 230.5C1120.75 244 1112.47 245.26 1103.83 245.26ZM1213.22 214.39V199H1146.62V262H1213.22V246.61H1166.42V237.25H1213.22V223.75H1166.42V214.39H1213.22ZM66.05 361H87.83L58.58 298H30.23L0.89 361H22.76L28.16 348.67H60.65L66.05 361ZM34.46 334.45L44.45 311.86L54.35 334.45H34.46ZM335.713 321.58C335.713 307.54 325.903 298 311.593 298H262.093V361H281.893V345.25H301.963L311.323 361H334.723L323.383 342.64C331.033 338.95 335.713 331.3 335.713 321.58ZM281.893 314.74H307.093C310.783 314.74 315.913 314.74 315.913 321.58C315.913 328.51 310.783 328.51 307.093 328.51H281.893V314.74ZM361.3 298H341.5V361H361.3V298ZM366.746 329.41C366.746 350.83 378.626 361.9 406.346 361.9C431.546 361.9 444.416 352.63 445.676 333.55H425.516C424.346 341.65 418.046 345.16 406.346 345.16C391.316 345.16 386.546 339.22 386.546 329.41C386.546 319.69 391.226 313.84 406.346 313.84C418.046 313.84 424.346 317.26 425.516 325.27H445.676C444.416 306.28 431.546 297.1 406.346 297.1C378.626 297.1 366.746 308.08 366.746 329.41ZM515.611 298V321.13H471.511V298H451.711V361H471.511V337.87H515.611V361H535.411V298H515.611ZM760.108 298H710.608V361H730.408V345.25H760.108C774.418 345.25 784.228 335.62 784.228 321.58C784.228 307.54 774.418 298 760.108 298ZM755.608 328.51H730.408V314.74H755.608C759.298 314.74 764.428 314.74 764.428 321.58C764.428 328.51 759.298 328.51 755.608 328.51ZM810.079 344.26V298H790.279V361H855.079V344.26H810.079ZM925.157 361H946.937L917.687 298H889.337L859.997 361H881.867L887.267 348.67H919.757L925.157 361ZM893.567 334.45L903.557 311.86L913.457 334.45H893.567ZM962.434 340.3V361H982.234V340.3L1016.07 298H992.854L972.334 324.1L951.904 298H928.594L962.434 340.3ZM1040.48 298H1020.68V361H1040.48V298ZM1109.08 298V340.66L1074.07 298H1047.7V361H1067.5V318.16L1102.6 361H1128.88V298H1109.08ZM1172.82 338.5H1193.07C1192.44 343 1186.5 347.14 1174.17 347.14C1156.8 347.14 1154.1 337.69 1154.1 330.04C1154.1 322.48 1156.71 313.84 1174.17 313.84C1187.67 313.84 1192.17 318.88 1193.07 322.84H1213.23C1212.24 306.46 1199.37 297.1 1174.17 297.1C1148.25 297.1 1134.3 308.08 1134.3 329.41C1134.3 350.92 1148.25 361.9 1171.47 361.9C1184.79 361.9 1193.7 357.85 1199.37 351.55L1200.54 361H1213.23V326.98H1172.82V338.5ZM68.39 412.39V397H1.79V460H68.39V444.61H21.59V435.25H68.39V421.75H21.59V412.39H68.39ZM73.0904 460H99.6404L119.53 440.2L139.51 460H165.97L133.39 428.5L165.97 397H139.51L119.53 416.8L99.6404 397H73.0904L105.76 428.5L73.0904 460ZM219.861 397H170.361V460H190.161V444.25H219.861C234.171 444.25 243.981 434.62 243.981 420.58C243.981 406.54 234.171 397 219.861 397ZM215.361 427.51H190.161V413.74H215.361C219.051 413.74 224.181 413.74 224.181 420.58C224.181 427.51 219.051 427.51 215.361 427.51ZM316.632 412.39V397H250.032V460H316.632V444.61H269.832V435.25H316.632V421.75H269.832V412.39H316.632ZM396.292 420.58C396.292 406.54 386.482 397 372.172 397H322.672V460H342.472V444.25H362.542L371.902 460H395.302L383.962 441.64C391.612 437.95 396.292 430.3 396.292 420.58ZM342.472 413.74H367.672C371.362 413.74 376.492 413.74 376.492 420.58C376.492 427.51 371.362 427.51 367.672 427.51H342.472V413.74ZM421.879 397H402.079V460H421.879V397ZM495.704 412.39V397H429.104V460H495.704V444.61H448.904V435.25H495.704V421.75H448.904V412.39H495.704ZM563.124 397V439.66L528.114 397H501.744V460H521.544V417.16L556.644 460H582.924V397H563.124ZM588.337 428.41C588.337 449.83 600.217 460.9 627.937 460.9C653.137 460.9 666.007 451.63 667.267 432.55H647.107C645.937 440.65 639.637 444.16 627.937 444.16C612.907 444.16 608.137 438.22 608.137 428.41C608.137 418.69 612.817 412.84 627.937 412.84C639.637 412.84 645.937 416.26 647.107 424.27H667.267C666.007 405.28 653.137 396.1 627.937 396.1C600.217 396.1 588.337 407.08 588.337 428.41ZM739.903 412.39V397H673.303V460H739.903V444.61H693.103V435.25H739.903V421.75H693.103V412.39H739.903ZM746.47 445.87V460H765.01V445.87H746.47Z" fill="url(#paint0_linear_1100_110161)"/>
<defs>
<linearGradient id="paint0_linear_1100_110161" x1="38.0074" y1="183.731" x2="1054.62" y2="183.731" gradientUnits="userSpaceOnUse">
<stop stop-color="#DCE0E2"/>
<stop offset="1" stop-color="#E2EAEE"/>
</linearGradient>
</defs>
</svg>
